<svg xmlns="http://www.w3.org/2000/svg" viewBox="0.5 0.500036 29 25.96">
	<path d="M 27.2098 18.8438 L 27.2098 18.8438 Z M 27.2098 18.8438 C 27.2098 18.8438 27.2098 18.8438 27.2098 18.8438 L 27.2098 18.8438 Z M 18.181 8.7535 L 18.1744 8.7936 V 8.8342 C 18.1744 9.2796 18.5341 9.6471 18.9861 9.6471 H 26.8752 C 28.3246 9.6471 29.5 10.8225 29.5 12.2719 C 29.5 13.2197 28.9887 14.0941 28.1629 14.5598 L 27.7333 14.8022 L 27.9698 15.2351 C 28.1539 15.572 28.2501 15.9499 28.2496 16.3342 V 16.3345 C 28.2491 17.2058 27.7594 18.0034 26.9832 18.3981 L 26.5426 18.622 L 26.7615 19.0652 C 27.322 20.2002 26.8637 21.5749 25.7338 22.1478 L 25.2925 22.3716 L 25.5117 22.8152 C 25.6686 23.133 25.75 23.482 25.75 23.836 C 25.75 24.1777 25.6718 24.5837 25.388 24.9018 C 25.114 25.209 24.5674 25.5239 23.4375 25.5239 L 15.3129 25.5238 L 15.31 25.5239 C 13.621 25.5336 11.9371 25.3401 10.2938 24.9481 L 10.2938 24.9479 L 10.2804 24.9451 C 9.8969 24.8646 9.4898 24.7808 9.0392 24.6946 C 8.98 24.6827 8.9375 24.6302 8.9375 24.5713 V 11.9262 C 8.9375 11.8839 8.9578 11.8457 8.9916 11.8223 L 8.707 11.4112 L 8.9911 11.8226 C 10.2474 10.9552 11.5539 9.552 12.5477 7.9297 C 13.5404 6.3091 14.2496 4.4228 14.2496 2.5846 V 2.5748 L 14.2492 2.565 C 14.2099 1.5635 14.9177 0.688 15.9045 0.5166 C 16.3792 0.4531 16.9342 0.5652 17.4576 0.9743 C 17.9824 1.3845 18.5028 2.1162 18.8496 3.3318 C 19.0939 5.097 18.8789 6.896 18.2251 8.5541 L 18.2054 8.6039 L 18.1968 8.6568 L 18.181 8.7535 Z M 6.0619 25.7105 V 25.7105 C 6.0619 26.1242 5.726 26.4603 5.3121 26.4603 H 1.2498 C 0.8359 26.4603 0.5 26.1242 0.5 25.7105 V 11.9598 C 0.5 11.5457 0.8357 11.21 1.2498 11.21 H 5.3127 C 5.7268 11.21 6.0625 11.5457 6.0625 11.9597 C 6.0625 11.9598 6.0625 11.9598 6.0625 11.9598 L 6.0619 25.7105 Z" stroke="#ffff" stroke-width="1" fill="none"/>
</svg>