<svg width="30" height="30" viewBox="0 0 30 30" fill="none" xmlns="http://www.w3.org/2000/svg">
<path d="M30 13.7919C30 12.0663 28.6008 10.6671 26.8752 10.6671H18.9861C18.8133 10.6671 18.6744 10.5265 18.6744 10.3542L18.6902 10.2575C19.3799 8.50852 19.6037 6.61008 19.34 4.74856C18.6047 2.13001 17.0473 1.37415 15.8285 1.54231C14.5898 1.75266 13.7004 2.84954 13.7496 4.10462C13.7496 7.53704 11.0883 11.287 8.70703 12.9312C8.5377 13.0484 8.4375 13.2406 8.4375 13.4462V26.0913C8.4375 26.3902 8.6502 26.648 8.94375 26.7054C9.39082 26.7909 9.79512 26.8741 10.1777 26.9544C11.86 27.3558 13.5838 27.5538 15.3129 27.5439H23.4375C25.8838 27.5439 26.25 26.1687 26.25 25.356C26.25 24.9253 26.151 24.5005 25.96 24.1138C27.334 23.4171 27.8918 21.7449 27.2098 20.3638C28.1537 19.8839 28.749 18.9142 28.7496 17.8548C28.7502 17.3866 28.633 16.9261 28.4086 16.5154C29.3912 15.9611 30 14.9204 30 13.7919Z" fill="white"/>
<path d="M6.5625 13.4798C6.5625 12.7896 6.00293 12.23 5.3127 12.23H1.2498C0.55957 12.23 0 12.7896 0 13.4798V27.2306C0 27.9202 0.55957 28.4804 1.2498 28.4804H5.31211C6.00234 28.4804 6.56191 27.9202 6.56191 27.2306L6.5625 13.4798Z" fill="white"/>
</svg>
